<svg xmlns="http://www.w3.org/2000/svg" width="88" viewBox="0 0 88 88" version="1.0" height="88" stroke="#000"><defs><clipPath id="a"><path d="M0 0 L88 0 L88 88 L0 88 L0 0 Z"/></clipPath></defs><path d="M0 0H88V88H0z" clip-path="url(#a)" fill="#214198" stroke="none"/><path d="M68.17 72.62 L68.17 63.77 L72.81 63.77 C73.91 63.77 74.81 62.87 74.81 61.77 L74.81 53.34 L74.81 49.55 L74.81 44.19 L74.81 42.93 L74.81 16.02 C74.81 13.27 72.56 11.02 69.81 11.02 L56.49 11.02 L49 11.02 L44 11.02 L39 11.02 L31.51 11.02 L18.19 11.02 C15.44 11.02 13.19 13.27 13.19 16.02 L13.19 42.93 L13.19 44.19 L13.19 49.55 L13.19 53.34 L13.19 61.77 C13.19 62.87 14.09 63.77 15.19 63.77 L19.83 63.77 L19.83 72.62 L11 72.62 L11 77 L44 77 L77 77 L77 72.62 L68.17 72.62 ZM19.83 42.94 L19.83 19.66 C19.83 18.56 20.73 17.66 21.83 17.66 L31.51 17.66 L44 17.66 L56.49 17.66 L66.17 17.66 C67.27 17.66 68.17 18.56 68.17 19.66 L68.17 42.94 L68.17 44.13 C68.17 45.23 67.27 46.13 66.17 46.13 L60.35 46.13 L44.39 46.13 L44 46.13 L43.61 46.13 L27.65 46.13 L21.83 46.13 C20.73 46.13 19.83 45.23 19.83 44.13 L19.83 42.94 ZM25.36 59.43 L20.83 59.43 C20.28 59.43 19.83 58.98 19.83 58.43 L19.83 51.62 C19.83 51.07 20.28 50.62 20.83 50.62 L25.36 50.62 C25.91 50.62 26.36 51.07 26.36 51.62 L26.36 58.43 C26.36 58.98 25.91 59.43 25.36 59.43 ZM61.64 72.62 L46.28 72.62 L46.28 61.68 L44 61.68 L41.72 61.68 L41.72 72.62 L26.36 72.62 L26.36 63.77 L31 63.77 C32.1 63.77 33 62.87 33 61.77 L33 61.22 C33.11 60.22 33.95 59.43 34.98 59.43 L35.72 59.43 L44 59.43 L52.28 59.43 L53.02 59.43 C54.05 59.43 54.89 60.22 55 61.22 L55 61.77 C55 62.87 55.9 63.77 57 63.77 L61.64 63.77 L61.64 72.62 ZM67.17 59.43 L62.64 59.43 C62.09 59.43 61.64 58.98 61.64 58.43 L61.64 51.62 C61.64 51.07 62.09 50.62 62.64 50.62 L67.17 50.62 C67.72 50.62 68.17 51.07 68.17 51.62 L68.17 58.43 C68.17 58.98 67.72 59.43 67.17 59.43 Z" clip-path="url(#a)" fill="#fff" stroke="none"/></svg>